<?xml version="1.0" encoding="utf-8"?>
<!-- Svg Vector Icons : http://www.onlinewebfonts.com/icon -->
<!DOCTYPE svg PUBLIC "-//W3C//DTD SVG 1.1//EN" "http://www.w3.org/Graphics/SVG/1.1/DTD/svg11.dtd">
<svg version="1.1" xmlns="http://www.w3.org/2000/svg" xmlns:xlink="http://www.w3.org/1999/xlink" x="0px" y="0px" viewBox="0 0 1000 1000" enable-background="new 0 0 1000 1000" xml:space="preserve">
<metadata> Svg Vector Icons : http://www.onlinewebfonts.com/icon </metadata>
<g><path d="M622.8,946.5c0-8.2-24.5-8.2-32.6-16.3c-8.2-8.1,8.1-12.2,8.1-16.3c0-4.1-77.3-8.2-138.4-4.1c0,0-20.4-20.4,4.1-61.1c24.5-36.6-16.3-16.3-28.5-16.3c-16.3,0-57-40.7-36.6,12.2c28.5,69.2-20.4,73.3-20.4,97.7c0,44.8,219.8,57,223.9,40.7c0-8.2-20.4-12.2-12.2-16.3C598.4,954.6,622.8,950.5,622.8,946.5z"/><path d="M920.1,132.1c-52.9,12.2-114,0-142.5-20.4C761.3,54.8,708.3,10,643.2,10c-77.4,0-142.5,65.1-142.5,142.5c0,97.7,40.7,89.6,40.7,207.7c0,150.6-203.6,260.6-399,260.6c-73.3,0-48.9,24.4-24.5,44.8c-52.9-12.2-126.2-4.1,20.4,81.4c85.5,48.9,167,114,386.8,114c256.5,0,301.3-162.9,301.3-252.4c0-134.4-122.1-211.7-122.1-317.6c0-73.3,44.8-40.7,114-57c61.1-12.2,105.8-48.9,122.1-65.1C952.6,152.5,952.6,128.1,920.1,132.1z M683.9,181c-16.3,0-28.5-12.2-28.5-28.5s12.2-28.5,28.5-28.5c16.3,0,28.5,12.2,28.5,28.5S700.2,181,683.9,181z"/></g>
</svg>